<svg width="1200" height="500" viewBox="0 0 1200 500" fill="none" xmlns="http://www.w3.org/2000/svg">
  <rect width="1200" height="500" fill="#0D1512"/>
  <g opacity=".32" stroke="#3E8E6E">
    <path d="M0 100H1200M0 200H1200M0 300H1200M0 400H1200M100 0V500M220 0V500M340 0V500M460 0V500M580 0V500M700 0V500M820 0V500M940 0V500M1060 0V500"/>
  </g>
  <g fill="#F5F1E6" opacity=".5" font-family="monospace" font-size="17">
    <text x="80" y="90">class Workflow:</text>
    <text x="140" y="130">def transform(data):</text>
    <text x="200" y="170">return pipeline.run(data)</text>
    <text x="700" y="260">01001001 101001</text>
    <text x="760" y="300">API / DATA / AI</text>
    <text x="820" y="340">status: stable</text>
  </g>
  <path d="M0 430C220 350 340 490 560 390C760 300 920 440 1200 340" stroke="#C79A45" stroke-width="2" opacity=".55"/>
</svg>
